<?xml version="1.0" encoding="UTF-8" standalone="no"?>
<!-- Created with Inkscape (http://www.inkscape.org/) -->

<svg
   xmlns:dc="http://purl.org/dc/elements/1.1/"
   xmlns:cc="http://creativecommons.org/ns#"
   xmlns:rdf="http://www.w3.org/1999/02/22-rdf-syntax-ns#"
   xmlns:svg="http://www.w3.org/2000/svg"
   xmlns="http://www.w3.org/2000/svg"
   xmlns:sodipodi="http://sodipodi.sourceforge.net/DTD/sodipodi-0.dtd"
   xmlns:inkscape="http://www.inkscape.org/namespaces/inkscape"
   width="24.002394"
   height="24"
   id="svg3717"
   version="1.1"
   inkscape:version="0.48.4 r9939"
   sodipodi:docname="icn-svg-rss.svg">
  <defs
     id="defs3719" />
  <sodipodi:namedview
     id="base"
     pagecolor="#ffffff"
     bordercolor="#666666"
     borderopacity="1.0"
     inkscape:pageopacity="0.0"
     inkscape:pageshadow="2"
     inkscape:zoom="7.9180417"
     inkscape:cx="-10.881063"
     inkscape:cy="-0.24388576"
     inkscape:current-layer="layer1"
     showgrid="true"
     inkscape:grid-bbox="true"
     inkscape:document-units="px"
     fit-margin-top="0"
     fit-margin-left="0"
     fit-margin-right="0"
     fit-margin-bottom="0"
     inkscape:window-width="1680"
     inkscape:window-height="1028"
     inkscape:window-x="-8"
     inkscape:window-y="-8"
     inkscape:window-maximized="1"
     inkscape:snap-bbox="true">
    <inkscape:grid
       type="xygrid"
       id="grid3757"
       empspacing="5"
       visible="true"
       enabled="true"
       snapvisiblegridlinesonly="true" />
  </sodipodi:namedview>
  <metadata
     id="metadata3722">
    <rdf:RDF>
      <cc:Work
         rdf:about="">
        <dc:format>image/svg+xml</dc:format>
        <dc:type
           rdf:resource="http://purl.org/dc/dcmitype/StillImage" />
        <dc:title></dc:title>
      </cc:Work>
    </rdf:RDF>
  </metadata>
  <g
     id="layer1"
     inkscape:label="Layer 1"
     inkscape:groupmode="layer"
     transform="translate(-1.77689,-2.228536)">
    <g
       style="display:inline"
       id="g3698"
       transform="translate(-473.28737,-41.266332)">
      <path
         style="font-size:43.96208572px;font-style:normal;font-variant:normal;font-weight:normal;font-stretch:normal;text-indent:0;text-align:start;text-decoration:none;line-height:125%;letter-spacing:0px;word-spacing:0px;text-transform:none;direction:ltr;block-progression:tb;writing-mode:lr-tb;text-anchor:start;baseline-shift:baseline;color:#000000;fill:#0190de;fill-opacity:1;stroke:none;stroke-width:1.0185473;marker:none;visibility:visible;display:inline;overflow:visible;enable-background:accumulate;font-family:FontAwesome;-inkscape-font-specification:FontAwesome"
         d="m 491.51972,45.865287 c -1.43725,0.03658 -2.69211,0.542181 -3.65495,1.507986 -0.96232,0.965301 -1.47243,2.198397 -1.50799,3.629391 a 0.41657192,0.41657192 0 0 0 0,0.02556 c 0.002,0.198137 0.0301,0.393074 0.0511,0.587859 -1.72622,-0.163882 -3.32999,-0.589734 -4.80511,-1.354632 -1.62816,-0.84421 -3.01826,-1.963799 -4.16613,-3.373799 a 0.41657192,0.41657192 0 0 0 -0.6901,0.05112 c -0.22505,0.384231 -0.39046,0.792401 -0.51118,1.226836 -0.12181,0.438389 -0.1776,0.90435 -0.17891,1.380191 0.009,0.892749 0.22793,1.733833 0.63898,2.479232 0.19493,0.353522 0.52892,0.575168 0.79233,0.869009 -0.30141,-0.0927 -0.57838,-0.209421 -0.84345,-0.357828 a 0.41657192,0.41657192 0 0 0 -0.61342,0.357828 l 0,0.05112 c 0.0242,1.25604 0.41441,2.38284 1.17572,3.297122 0.359,0.43115 0.76505,0.785244 1.22683,1.073482 -0.0861,-0.0095 -0.171,-0.01206 -0.25559,-0.02556 a 0.41657192,0.41657192 0 0 0 -0.46006,0.536741 c 0.3422,1.029913 0.93586,1.883375 1.78914,2.53035 0.53765,0.407667 1.1618,0.648605 1.81469,0.81789 -0.53609,0.325365 -1.03022,0.680876 -1.63578,0.894569 -0.95072,0.335494 -1.97127,0.506768 -3.04153,0.511181 -0.37358,0.0023 -0.74127,-0.01137 -1.09904,-0.05112 a 0.41657192,0.41657192 0 0 0 -0.28115,0.766773 c 0.0546,0.03519 0.12388,0.0423 0.17891,0.07668 1.04132,0.650609 2.14866,1.173976 3.34824,1.533545 1.26653,0.379651 2.60181,0.583454 3.98722,0.58786 a 0.41657192,0.41657192 0 0 0 0.0255,0 c 2.97544,-0.05154 5.51112,-0.768456 7.59105,-2.172523 2.05761,-1.38904 3.63553,-3.151753 4.70287,-5.265172 1.06133,-2.101597 1.60496,-4.259014 1.61022,-6.46645 0.002,-0.14666 -0.0202,-0.287898 -0.0255,-0.434505 0.41151,-0.315272 0.8147,-0.649464 1.17572,-1.022363 0.41518,-0.428871 0.78749,-0.889975 1.1246,-1.380191 a 0.41657192,0.41657192 0 0 0 -0.30671,-0.664536 0.41657192,0.41657192 0 0 0 -0.20447,0.05112 c -0.35879,0.155359 -0.71637,0.271163 -1.09904,0.383386 0.0437,-0.05039 0.11145,-0.07557 0.15335,-0.127795 0.38903,-0.48488 0.67451,-1.035746 0.86901,-1.635782 a 0.41657192,0.41657192 0 0 0 -0.61341,-0.485623 c -0.4359,0.260137 -0.89578,0.479269 -1.3802,0.664537 -0.433,0.165623 -0.87174,0.286576 -1.32907,0.383386 -0.42974,-0.409581 -0.90604,-0.777365 -1.45687,-1.022363 -0.64616,-0.287342 -1.35576,-0.429546 -2.09584,-0.434505 z m 0,0.84345 c 0.009,5.9e-5 0.0168,-1.05e-4 0.0255,0 0.62496,0.0074 1.20707,0.121726 1.73801,0.357827 0.54357,0.241768 1.00499,0.569488 1.40575,0.996805 a 0.41657192,0.41657192 0 0 0 0.38339,0.127795 c 0.56097,-0.108218 1.10668,-0.257684 1.63578,-0.460063 0.115,-0.04398 0.21963,-0.105427 0.33227,-0.153355 -0.0654,0.09694 -0.10502,0.214618 -0.17891,0.306709 -0.32718,0.407778 -0.69577,0.724288 -1.15016,0.996805 a 0.41657192,0.41657192 0 0 0 0.25559,0.792331 c 0.49129,-0.05405 0.95961,-0.152697 1.43131,-0.28115 -0.0456,0.04911 -0.0811,0.105076 -0.1278,0.153355 -0.38292,0.395516 -0.8079,0.748401 -1.25239,1.073482 a 0.41657192,0.41657192 0 0 0 -0.17892,0.383386 c 0.0116,0.195817 0.0279,0.392228 0.0255,0.587859 -0.005,2.073788 -0.49902,4.085134 -1.50798,6.083063 -1.00306,1.986139 -2.47066,3.64136 -4.42173,4.958464 -1.92883,1.302065 -4.30674,1.969801 -7.15654,2.019168 -1.31046,-0.0042 -2.54463,-0.180933 -3.73163,-0.536741 -0.63085,-0.189093 -1.18089,-0.518747 -1.76358,-0.792332 0.91604,-0.06031 1.81813,-0.163633 2.65815,-0.460064 1.03748,-0.366112 2.00726,-0.887904 2.86262,-1.559104 a 0.41657192,0.41657192 0 0 0 -0.25559,-0.741214 c -0.98492,-0.03612 -1.80877,-0.321873 -2.53035,-0.869009 -0.54446,-0.412816 -0.92889,-0.938574 -1.22684,-1.533545 0.0683,0.0026 0.13557,0.02503 0.20447,0.02556 0.46394,-0.0026 0.91865,-0.0646 1.35463,-0.178914 a 0.41657192,0.41657192 0 0 0 -0.0255,-0.81789 c -1.02887,-0.225001 -1.83393,-0.707418 -2.47924,-1.482428 -0.51213,-0.615035 -0.77859,-1.334429 -0.89456,-2.146963 0.13008,0.04871 0.2481,0.114379 0.38338,0.153354 0.39396,0.113519 0.80481,0.187266 1.22684,0.204473 a 0.41657192,0.41657192 0 0 0 0.25559,-0.766773 c -0.59414,-0.398891 -1.05918,-0.905015 -1.40575,-1.533545 -0.34339,-0.622699 -0.50346,-1.301197 -0.51118,-2.070286 8.2e-4,-0.406422 0.0524,-0.786971 0.15335,-1.150159 0.0495,-0.178125 0.13471,-0.344109 0.20448,-0.511182 1.12959,1.261129 2.43698,2.327657 3.96165,3.118209 1.7296,0.89685 3.61155,1.41353 5.64856,1.533545 a 0.41657192,0.41657192 0 0 0 0.43451,-0.511181 c -0.0699,-0.326884 -0.1,-0.65486 -0.10224,-0.996805 0.0311,-1.251362 0.43357,-2.24573 1.2524,-3.067091 0.81238,-0.814881 1.82183,-1.215123 3.06709,-1.252395 z"
         id="path3685"
         inkscape:connector-curvature="0" />
    </g>
  </g>
</svg>
