<?xml version="1.0" encoding="UTF-8" standalone="no"?>
<!-- Created with Inkscape (http://www.inkscape.org/) -->

<svg
   xmlns:dc="http://purl.org/dc/elements/1.1/"
   xmlns:cc="http://creativecommons.org/ns#"
   xmlns:rdf="http://www.w3.org/1999/02/22-rdf-syntax-ns#"
   xmlns:svg="http://www.w3.org/2000/svg"
   xmlns="http://www.w3.org/2000/svg"
   xmlns:sodipodi="http://sodipodi.sourceforge.net/DTD/sodipodi-0.dtd"
   xmlns:inkscape="http://www.inkscape.org/namespaces/inkscape"
   width="24.002394"
   height="24"
   id="svg3717"
   version="1.1"
   inkscape:version="0.48.4 r9939"
   sodipodi:docname="New document 3">
  <defs
     id="defs3719" />
  <sodipodi:namedview
     id="base"
     pagecolor="#ffffff"
     bordercolor="#666666"
     borderopacity="1.0"
     inkscape:pageopacity="0.0"
     inkscape:pageshadow="2"
     inkscape:zoom="5.598901"
     inkscape:cx="17.085219"
     inkscape:cy="3.2479708"
     inkscape:current-layer="g3698"
     showgrid="true"
     inkscape:grid-bbox="true"
     inkscape:document-units="px"
     fit-margin-top="0"
     fit-margin-left="0"
     fit-margin-right="0"
     fit-margin-bottom="0"
     inkscape:window-width="635"
     inkscape:window-height="445"
     inkscape:window-x="50"
     inkscape:window-y="50"
     inkscape:window-maximized="0" />
  <metadata
     id="metadata3722">
    <rdf:RDF>
      <cc:Work
         rdf:about="">
        <dc:format>image/svg+xml</dc:format>
        <dc:type
           rdf:resource="http://purl.org/dc/dcmitype/StillImage" />
        <dc:title></dc:title>
      </cc:Work>
    </rdf:RDF>
  </metadata>
  <g
     id="layer1"
     inkscape:label="Layer 1"
     inkscape:groupmode="layer"
     transform="translate(-1.77689,-2.228536)">
    <g
       style="display:inline"
       id="g3698"
       transform="translate(-429.22311,-21.771464)">
      <path
         style="font-size:43.96208572px;font-style:normal;font-variant:normal;font-weight:normal;font-stretch:normal;text-indent:0;text-align:start;text-decoration:none;line-height:125%;letter-spacing:0px;word-spacing:0px;text-transform:none;direction:ltr;block-progression:tb;writing-mode:lr-tb;text-anchor:start;baseline-shift:baseline;color:#000000;fill:#0190de;fill-opacity:1;stroke:none;stroke-width:1.00549948;marker:none;visibility:visible;display:inline;overflow:visible;enable-background:accumulate;font-family:FontAwesome;-inkscape-font-specification:FontAwesome"
         d="m 445.15592,24 c -1.96049,0.01363 -3.45742,0.485675 -4.375,1.53125 -0.88832,1.012293 -1.30601,2.417824 -1.28125,4.125 l 0,2.34375 -1.5,0 c -0.2614,0.0015 -0.49855,0.2386 -0.5,0.5 l 0,4 c 0.001,0.2614 0.2386,0.498548 0.5,0.5 l 1.5,0 0,10.5 c 0.001,0.2614 0.2386,0.498548 0.5,0.5 l 4.75,0 c 0.2614,-0.0015 0.49855,-0.2386 0.5,-0.5 l 0,-10.5 2.34375,0 c 0.24192,7.02e-4 0.46858,-0.197625 0.5,-0.4375 l 0.40625,-4 c 0.0337,-0.28146 -0.21654,-0.562927 -0.5,-0.5625 l -2.75,0 0,-1.9375 c 3.2e-4,-0.01041 3.2e-4,-0.02084 0,-0.03125 -0.0234,-0.454755 0.0634,-0.737571 0.15625,-0.875 0.013,-0.01924 0.28818,-0.185895 0.9375,-0.1875 l 1.65625,0 c 0.2614,-0.0015 0.49855,-0.2386 0.5,-0.5 l 0,-3.96875 c -10e-4,-0.2614 -0.2386,-0.498548 -0.5,-0.5 z m 0,1 2.34375,0 0,2.96875 -1.15625,0 c -0.77622,0.0019 -1.42914,0.103594 -1.78125,0.625 -0.26694,0.395239 -0.33765,0.902113 -0.3125,1.46875 5.1e-4,0.01154 -6e-4,0.01965 0,0.03125 l 0,2.40625 c 0.001,0.2614 0.2386,0.498548 0.5,0.5 l 2.6875,0 -0.3125,3 -2.375,0 c -0.2614,0.0015 -0.49855,0.2386 -0.5,0.5 l 0,10.5 -3.75,0 0,-10.5 c -10e-4,-0.2614 -0.2386,-0.498548 -0.5,-0.5 l -1.5,0 0,-3 1.5,0 c 0.2614,-0.0015 0.49855,-0.2386 0.5,-0.5 l 0,-2.84375 c -0.0224,-1.54208 0.34463,-2.686301 1.03125,-3.46875 0.65738,-0.749081 1.82343,-1.174973 3.625,-1.1875 z"
         id="path3683"
         inkscape:connector-curvature="0"
         sodipodi:nodetypes="cccccccccccccccccccccccccccccccccccccccccccccccccccc" />
    </g>
  </g>
</svg>
