<?xml version="1.0" encoding="UTF-8" standalone="no"?>
<!-- Created with Inkscape (http://www.inkscape.org/) -->

<svg
   xmlns:dc="http://purl.org/dc/elements/1.1/"
   xmlns:cc="http://creativecommons.org/ns#"
   xmlns:rdf="http://www.w3.org/1999/02/22-rdf-syntax-ns#"
   xmlns:svg="http://www.w3.org/2000/svg"
   xmlns="http://www.w3.org/2000/svg"
   version="1.1"
   width="24.002394"
   height="24"
   id="svg3717">
  <defs
     id="defs3719" />
  <metadata
     id="metadata3722">
    <rdf:RDF>
      <cc:Work
         rdf:about="">
        <dc:format>image/svg+xml</dc:format>
        <dc:type
           rdf:resource="http://purl.org/dc/dcmitype/StillImage" />
        <dc:title></dc:title>
      </cc:Work>
    </rdf:RDF>
  </metadata>
  <g
     transform="translate(-1.77689,-2.228536)"
     id="layer1">
    <g
       transform="translate(-429.22311,-21.771464)"
       id="g3698"
       style="display:inline">
      <path
         d="m 432.53125,24 c -0.19401,2.9e-5 -0.38228,0.02259 -0.5625,0.09375 -0.18748,0.07418 -0.35632,0.202089 -0.5,0.34375 -0.30463,0.285387 -0.46494,0.675466 -0.46875,1.09375 l 0,2.34375 c 0.008,0.383956 0.14461,0.784732 0.40625,1.0625 0.26397,0.280295 0.64383,0.436716 1.03125,0.46875 3.1238,0.211686 5.92793,1.081447 8.4375,2.625 2.51532,1.547133 4.54891,3.577976 6.09375,6.09375 1.54121,2.509915 2.41855,5.313925 2.625,8.4375 0.0316,0.388649 0.18629,0.767573 0.46875,1.03125 0.28154,0.262862 0.6739,0.397873 1.0625,0.40625 l 2.34375,0 c 0.41774,-0.0042 0.80823,-0.163969 1.09375,-0.46875 0.1511,-0.153051 0.26913,-0.330277 0.34375,-0.53125 0.0722,-0.194538 0.10588,-0.41743 0.0937,-0.625 l -0.0625,-1.1875 C 454.66243,42.984815 453.84627,39.932082 453,38 451.81987,35.35805 450.17896,32.994615 448.09375,30.90625 446.00539,28.821033 443.64194,27.180137 441,26 c -2.64201,-1.180114 -5.43579,-1.840502 -8.375,-2 l -0.0312,0 c -0.0159,1.9e-5 -0.0467,1.9e-5 -0.0625,0 z m 0,1 c 0.008,10e-6 0.0229,0 0.0312,0 0.008,0 0.0229,10e-6 0.0312,0 2.81069,0.156192 5.47828,0.779864 8,1.90625 2.53114,1.130639 4.77523,2.715759 6.78125,4.71875 2.00299,2.006017 3.58812,4.250112 4.71875,6.78125 1.13058,2.531119 1.7531,5.20896 1.90625,8.03125 0.004,0.07301 -0.005,0.149044 -0.0312,0.21875 -0.0235,0.06325 -0.0636,0.125343 -0.125,0.1875 -0.1177,0.125635 -0.19348,0.154433 -0.375,0.15625 l -2.34375,0 c -0.18078,-0.0039 -0.26702,-0.05543 -0.375,-0.15625 -0.10712,-0.100003 -0.17291,-0.164425 -0.1875,-0.34375 -0.21613,-3.270021 -1.12279,-6.256279 -2.75,-8.90625 -1.62364,-2.644114 -3.76271,-4.780255 -6.40625,-6.40625 -2.64931,-1.629497 -5.63627,-2.559658 -8.90625,-2.78125 -0.18056,-0.01493 -0.27529,-0.05037 -0.375,-0.15625 -0.10204,-0.108328 -0.12132,-0.205248 -0.125,-0.375 l 0,-2.34375 c 0.002,-0.180988 0.0305,-0.257161 0.15625,-0.375 0.0552,-0.05442 0.12708,-0.101095 0.1875,-0.125 0.0677,-0.02672 0.11727,-0.03124 0.1875,-0.03125 z m 0,7.375 c -0.19153,5.15e-4 -0.38383,0.02453 -0.5625,0.09375 -0.17428,0.06752 -0.30176,0.183898 -0.4375,0.3125 l -0.0312,0 c -0.15713,0.141305 -0.2911,0.306253 -0.375,0.5 -0.0843,0.194782 -0.125,0.41233 -0.125,0.625 l 0,2.21875 c 0.008,0.378879 0.1509,0.754537 0.40625,1.03125 0.25478,0.276062 0.59199,0.458102 0.96875,0.5 2.44546,0.276963 4.47984,1.19861 6.125,2.84375 1.64514,1.645158 2.56679,3.679522 2.84375,6.125 0.042,0.376604 0.22389,0.713931 0.5,0.96875 0.27659,0.255276 0.65193,0.398285 1.03125,0.40625 l 2.21875,0 c 0.21269,0 0.43018,-0.04062 0.625,-0.125 0.19366,-0.08389 0.35868,-0.217872 0.5,-0.375 l 0,-0.03125 c 0.26573,-0.306728 0.42457,-0.717927 0.40625,-1.125 l 0,-0.40625 c -0.23456,-1.507627 -0.74476,-3.459504 -1.34375,-4.78125 -0.75559,-1.630824 -1.77447,-3.087996 -3.0625,-4.375 -1.28701,-1.288034 -2.74417,-2.306901 -4.375,-3.0625 -1.63063,-0.755477 -3.37732,-1.194353 -5.1875,-1.34375 l -0.0312,0 c -0.0271,1e-5 -0.0667,1e-5 -0.0937,0 z m 0,1 c 0.0182,7e-6 0.0443,2e-6 0.0625,0 0.0103,8.52e-4 0.0209,-8.73e-4 0.0312,0 1.6857,0.142628 3.26526,0.547638 4.78125,1.25 1.52507,0.706597 2.8868,1.667084 4.09375,2.875 1.20791,1.206952 2.16841,2.568694 2.875,4.09375 0.70666,1.525266 1.10994,3.115374 1.25,4.8125 0.008,0.187651 -0.006,0.305433 -0.125,0.4375 l -0.0312,0 c -0.0546,0.0628 -0.0936,0.09786 -0.15625,0.125 C 445.24306,46.998829 445.17796,47 445.09375,47 l -2.1875,0 c -0.0129,-2.71e-4 -0.0192,6.91e-4 -0.0312,0 -0.14905,-0.0085 -0.2481,-0.03672 -0.34375,-0.125 -0.10393,-0.09591 -0.16807,-0.200658 -0.1875,-0.375 -0.2992,-2.64183 -1.35677,-4.888004 -3.15625,-6.6875 -1.7995,-1.799474 -4.04568,-2.857049 -6.6875,-3.15625 -0.1742,-0.01937 -0.27904,-0.08352 -0.375,-0.1875 -0.0882,-0.09554 -0.11637,-0.194344 -0.125,-0.34375 l 0,-0.03125 0,-2.1875 c 0,-0.08423 0.001,-0.149268 0.0312,-0.21875 0.0271,-0.06256 0.0622,-0.101663 0.125,-0.15625 L 432.1875,33.5 c 0.0435,-0.04287 0.0945,-0.06982 0.15625,-0.09375 0.0658,-0.0255 0.11411,-0.03105 0.1875,-0.03125 z m 2.09375,7.34375 c -0.99656,0.02522 -1.8856,0.385591 -2.5625,1.0625 -0.67691,0.676909 -1.0373,1.565927 -1.0625,2.5625 l 0,0.03125 c 0.0252,0.996552 0.38558,1.885593 1.0625,2.5625 0.6769,0.676901 1.56593,1.037286 2.5625,1.0625 l 0.0312,0 c 0.99655,-0.02523 1.88558,-0.385602 2.5625,-1.0625 0.6769,-0.676903 1.03728,-1.565937 1.0625,-2.5625 l 0,-0.03125 c -0.0252,-0.996556 -0.3856,-1.885587 -1.0625,-2.5625 -0.67692,-0.676895 -1.56594,-1.037298 -2.5625,-1.0625 z m 0,1 c 0.0111,2.8e-4 0.0202,-3.73e-4 0.0312,0 0.76458,0.0259 1.34688,0.2844 1.84375,0.78125 0.49684,0.496852 0.75533,1.07915 0.78125,1.84375 3.7e-4,0.01102 -2.8e-4,0.02016 0,0.03125 -0.0259,0.764594 -0.28441,1.346906 -0.78125,1.84375 -0.49686,0.496847 -1.07915,0.755327 -1.84375,0.78125 -0.0111,-2.81e-4 -0.0202,3.73e-4 -0.0312,0 -0.7646,-0.02591 -1.34691,-0.284407 -1.84375,-0.78125 C 432.2844,45.721911 432.02592,45.139604 432,44.375 c -3.7e-4,-0.01102 2.8e-4,-0.02016 0,-0.03125 0.0259,-0.764584 0.2844,-1.346895 0.78125,-1.84375 0.49683,-0.496835 1.07915,-0.755336 1.84375,-0.78125 z"
         id="path3681"
         style="font-size:43.96208572px;font-style:normal;font-variant:normal;font-weight:normal;font-stretch:normal;text-indent:0;text-align:start;text-decoration:none;line-height:125%;letter-spacing:0px;word-spacing:0px;text-transform:none;direction:ltr;block-progression:tb;writing-mode:lr-tb;text-anchor:start;baseline-shift:baseline;color:#000000;fill:#0190de;fill-opacity:1;stroke:none;stroke-width:1;marker:none;visibility:visible;display:inline;overflow:visible;enable-background:accumulate;font-family:FontAwesome;-inkscape-font-specification:FontAwesome" />
    </g>
  </g>
</svg>
